<svg id="Search" xmlns="http://www.w3.org/2000/svg" width="15" height="15" viewBox="0 0 15 15">
  <path id="Search-2" data-name="Search" d="M14.115,14.894l-.062-.053-2.346-2.287a7.276,7.276,0,0,1-4.5,1.545A7.138,7.138,0,0,1,0,7.05,7.139,7.139,0,0,1,7.208,0a7.139,7.139,0,0,1,7.209,7.05,6.938,6.938,0,0,1-1.9,4.762l2.318,2.261a.535.535,0,0,1,0,.768.565.565,0,0,1-.723.053ZM1.11,7.05a6.039,6.039,0,0,0,6.1,5.964,6.039,6.039,0,0,0,6.1-5.964,6.039,6.039,0,0,0-6.1-5.964A6.039,6.039,0,0,0,1.11,7.05Z" fill="#200e32"/>
</svg>
